<?xml version="1.0" encoding="UTF-8" standalone="no"?>
<!-- Created with Inkscape (http://www.inkscape.org/) -->

<svg
   width="202.47346mm"
   height="232.66513mm"
   viewBox="0 0 202.47346 232.66513"
   version="1.1"
   id="svg1"
   xml:space="preserve"
   xmlns="http://www.w3.org/2000/svg"
   xmlns:svg="http://www.w3.org/2000/svg"><defs
     id="defs1" /><g
     id="layer1"
     transform="translate(296.36259,-371.91988)"><path
       id="path90"
       style="fill:#000000;stroke-width:1.18694"
       d="m -195.20288,371.91986 a 3.3733372,3.3733372 0 0 0 -1.6862,0.45268 l -48.13866,27.83603 c 0.2454,0.23603 0.46382,0.42869 0.73432,0.70021 1.49364,1.49941 2.7246,2.98867 3.73517,4.50671 l 45.35796,-26.22889 39.08857,22.53247 c 1.53854,-1.81243 3.0595,-3.56263 4.51497,-5.18418 l -41.91993,-24.16493 a 3.3733372,3.3733372 0 0 0 -1.6862,-0.4501 z m 66.04868,13.10824 c -0.82539,-0.007 -1.65671,0.0564 -2.48564,0.19327 -2.93902,0.48537 -6.65489,1.94643 -9.06249,3.56309 -2.67413,1.79563 -10.4017,10.12742 -17.43356,18.79679 -1.03635,1.27763 -4.5452,5.33771 -7.79746,9.02218 -6.18916,7.01182 -7.44378,8.60862 -7.41918,9.44542 0.008,0.27816 0.75037,1.11213 1.64899,1.85364 0.89863,0.74152 2.56971,2.15465 3.71347,3.14037 1.14376,0.98572 4.25252,3.6266 6.90862,5.86838 2.65617,2.24179 6.24282,5.31508 7.97006,6.82956 1.72725,1.51445 3.21612,2.7185 3.30832,2.6758 0.0923,-0.0427 1.06904,-1.06676 2.17041,-2.27583 1.10142,-1.20905 5.76276,-6.01389 10.35854,-10.67738 9.59174,-9.73315 16.34821,-16.86754 19.18229,-20.25561 4.97782,-5.95094 6.04589,-12.84551 2.96055,-19.1084 -2.73369,-5.549 -8.24517,-9.02315 -14.02292,-9.07128 z m -5.60948,5.04104 c 0.32445,-0.0254 0.58917,0.009 0.7705,0.11007 0.42514,0.23793 0.14525,0.61557 -1.64848,2.22157 -1.50002,1.343 -3.0922,3.3075 -5.2064,6.42441 -1.67509,2.46951 -3.96703,5.62037 -5.09323,7.00216 -1.12624,1.3818 -3.12966,3.85277 -4.45192,5.49062 -1.32225,1.63784 -3.54679,4.18119 -4.94337,5.65237 -1.39656,1.47118 -3.55938,3.9778 -4.80591,5.5702 -1.24656,1.59241 -2.66953,3.1824 -3.16208,3.53312 -1.02076,0.72687 -1.52864,0.78021 -2.23862,0.23512 -1.78937,-1.37378 -1.30369,-3.44794 1.55959,-6.66057 1.14351,-1.28299 3.28042,-3.70964 4.74855,-5.39244 1.46814,-1.68275 3.15691,-3.56064 3.75326,-4.17338 0.59636,-0.61279 2.13667,-2.45708 3.42253,-4.09795 4.58688,-5.85319 10.99282,-12.68422 13.39402,-14.28285 1.41672,-0.9432 2.92821,-1.55616 3.90156,-1.63245 z m -59.40464,3.8902 -4.24315,0.21291 c -7.34897,0.36878 -13.32062,1.92891 -18.56734,4.85086 -6.09096,3.39211 -9.75849,8.07253 -11.39465,14.54278 -0.89432,3.53657 -0.73957,7.99266 0.34416,9.91154 0.9508,1.68354 1.29661,1.52089 3.65559,-1.71927 2.07006,-2.84334 9.88771,-10.59854 12.29383,-12.19564 0.91707,-0.60875 2.15136,-1.18516 2.74246,-1.28106 0.96428,-0.15648 1.14067,-0.0657 1.7198,0.88419 0.35497,0.58225 0.64634,1.55553 0.64698,2.16265 0.001,0.99574 -0.31441,1.3982 -3.2215,4.11293 -3.71963,3.47345 -5.76439,5.91258 -9.17412,10.943 l -2.43913,3.59772 1.52962,0.53898 c 2.19971,0.77486 6.29462,0.74963 9.20306,-0.0563 3.69816,-1.02482 6.19586,-2.39845 8.71936,-4.79557 6.4814,-6.15666 9.91936,-15.75517 9.43199,-26.33328 -0.12786,-2.77497 -0.31029,-3.94701 -0.70952,-4.55631 z m -76.39533,0.0982 c -3.79984,0.002 -4.37563,0.13728 -4.82968,1.13378 -0.49661,1.08977 -0.44213,9.69186 0.0832,13.1899 0.94778,6.3111 3.57632,11.41203 8.07185,15.66364 2.74245,2.59367 4.26616,3.53203 7.6662,4.72168 2.1557,0.75428 3.00246,0.88025 5.96656,0.88625 3.27128,0.007 5.81089,-0.41936 6.66316,-1.11776 0.28766,-0.23573 0.004,-0.86816 -1.1467,-2.56005 -2.16308,-3.18013 -5.75885,-7.07363 -11.57655,-12.53516 -2.30783,-2.16651 -2.59626,-2.78875 -1.89808,-4.09329 1.42517,-2.66298 3.4418,-1.85595 9.46041,3.78633 3.0864,2.89342 6.67339,6.73 8.94002,9.56221 1.44839,1.8098 1.35954,2.73829 -0.44493,4.66742 l -1.46503,1.56631 0.67489,0.91312 c 1.96574,2.6588 4.28151,6.27408 5.24775,8.19278 1.24485,2.47195 3.05586,6.91511 2.88716,7.08381 -0.062,0.062 -1.37508,-0.0425 -2.91765,-0.23203 -1.54256,-0.18962 -3.7514,-0.27733 -4.90875,-0.19533 l -2.10478,0.14882 -0.21084,-0.97771 c -0.32356,-1.50016 -1.28198,-3.20202 -2.21795,-3.93827 -1.04872,-0.8249 -5.0101,-2.69692 -6.79287,-3.21014 -2.15396,-0.62007 -9.72992,-0.52321 -12.16411,0.15555 -6.20048,1.72894 -11.45411,6.09557 -16.27653,13.52837 -1.56422,2.41092 -3.01393,6.17347 -2.72696,7.07761 0.30519,0.96155 2.1444,2.14854 6.85074,4.4204 4.51551,2.17975 8.56648,3.5428 11.99565,4.03696 6.41945,0.92505 12.63592,-0.5061 17.14934,-3.94808 2.71252,-2.06859 6.52047,-8.03756 6.55257,-10.2712 0.008,-0.53294 0.18215,-0.57249 1.7291,-0.39068 2.16686,0.25466 4.78055,1.22294 6.28488,2.32854 0.71088,0.52243 1.60572,1.69801 2.30891,3.03341 0.63152,1.19929 1.28972,2.21534 1.46244,2.25774 0.47919,0.11749 4.8674,-5.72436 4.8674,-6.47971 0,-0.18642 -0.28408,-0.89569 -0.63148,-1.57664 -0.93789,-1.83841 -1.12674,-5.24912 -0.49868,-9.00514 0.54226,-3.24296 1.63531,-6.13905 3.7114,-9.83092 2.28403,-4.06169 2.36907,-5.07971 0.55862,-6.71536 -0.69139,-0.62463 -1.38859,-1.13584 -1.54926,-1.13584 -0.76716,0 -3.35571,3.83412 -6.04252,8.95035 -0.99777,1.89996 -1.8176,3.20241 -1.8216,2.8944 -0.0208,-1.57472 -4.65327,-8.48972 -6.76806,-10.10274 -0.59967,-0.45739 -1.09037,-0.96153 -1.09037,-1.12035 0,-0.15882 0.35686,-1.06816 0.79272,-2.02106 1.53725,-3.3608 1.78262,-6.7611 0.77308,-10.70839 -0.86705,-3.39017 -2.69511,-6.34695 -5.93453,-9.5989 -2.3819,-2.39107 -3.11928,-2.91425 -6.30866,-4.47414 -5.55919,-2.71895 -11.33533,-3.96449 -18.37148,-3.96049 z m 141.68333,2.43965 c 0.87988,-0.016 1.75192,0.25 2.55592,0.80718 1.63469,1.13285 2.26188,2.32864 2.26188,4.3124 0,2.05889 -0.87914,3.4883 -2.68976,4.37234 -2.62361,1.28102 -5.55277,0.38895 -6.73396,-2.05103 -1.01283,-2.09223 -0.72798,-3.89098 0.88625,-5.59708 1.13097,-1.19534 2.43371,-1.82043 3.71967,-1.84381 z m 11.18433,19.5802 c -1.20374,1.37276 -2.74089,3.05821 -4.65863,5.10098 l 21.64468,12.47727 0.0744,109.06518 -12.60853,7.28999 c 0.40352,2.29186 0.72832,4.57147 0.93327,6.72001 l -0.002,-0.002 c 0.017,0.17797 0.009,0.35374 0.0124,0.53072 l 16.726628,-9.67383 a 3.3733372,3.3733372 0 0 0 1.684652,-2.92127 l -0.07545,-112.96055 a 3.3733372,3.3733372 0 0 0 -1.687752,-2.9192 z m -28.77911,1.21284 c 2.09199,0 3.57032,1.23514 3.57032,2.98328 0,1.16047 -0.49692,1.95746 -1.56424,2.50941 -3.14168,1.62463 -6.15436,-1.15292 -4.5713,-4.21421 0.52873,-1.02246 1.04265,-1.27848 2.56522,-1.27848 z m -128.36943,0.15968 -19.8329,11.46855 a 3.3733372,3.3733372 0 0 0 -1.68517,2.92334 l 0.0765,112.95796 a 3.3733372,3.3733372 0 0 0 1.6893,2.92179 l 7.53701,4.3434 c 0.005,-0.25853 0.008,-0.51711 0.0424,-0.77721 0.29414,-2.24845 0.649,-4.35287 1.04438,-6.38256 l -3.56774,-2.05724 -0.0729,-109.06466 18.45365,-10.67118 c -1.46588,-1.75258 -2.69705,-3.63794 -3.68453,-5.66219 z m 96.3166,14.68283 c -0.11334,0.003 -0.21908,0.0173 -0.31884,0.0424 -2.20328,0.553 -4.27557,3.79492 -4.31757,6.75411 -0.0323,2.27581 0.32026,2.81812 3.60392,5.5485 1.4201,1.18081 3.29396,2.78927 4.16408,3.57446 6.72073,6.06437 9.44009,8.41177 10.29447,8.88628 0.63754,0.35409 1.66622,0.54932 2.89233,0.54932 1.58919,0 2.18335,-0.16827 3.60184,-1.02061 2.07749,-1.24833 4.42156,-4.00091 4.18321,-4.91236 -0.0908,-0.34718 -1.24559,-1.5176 -2.56625,-2.60088 -1.32065,-1.08322 -4.57413,-3.88135 -7.23005,-6.2177 -9.23843,-8.1271 -12.60695,-10.64996 -14.30714,-10.60349 z m -69.53684,11.89643 c 0.91136,0.0325 1.07425,0.39845 1.37976,1.12965 0.27002,0.64625 0.63318,1.80861 0.80667,2.58279 0.38596,1.72218 0.0496,2.06184 -2.33422,2.36006 -4.59591,0.57495 -11.54089,1.83674 -15.53859,2.82308 -2.47108,0.60969 -4.74828,1.10846 -5.06067,1.10846 -0.31238,0 -0.94067,-0.29262 -1.39578,-0.65061 -1.17831,-0.92688 -1.1451,-2.56909 0.0749,-3.70881 1.56024,-1.45749 7.29452,-3.14754 16.19798,-4.77387 3.29872,-0.60255 4.95856,-0.90328 5.86992,-0.87075 z m 68.90846,8.11992 c -0.0977,0 -0.17787,0.38852 -0.17829,0.86351 -4e-4,0.47499 -0.5304,1.65736 -1.1777,2.62775 -0.6473,0.97039 -1.55142,2.40089 -2.00867,3.17862 -1.22654,2.08615 -2.64841,2.99049 -7.42693,4.7227 -2.36668,0.85794 -5.22162,1.89235 -6.34432,2.29857 -4.01818,1.45387 -5.38372,0.96409 -9.28005,-3.32796 -4.69123,-5.16758 -8.78833,-9.19365 -9.78803,-9.61905 -2.28286,-0.97134 -3.35246,-0.36528 -5.80844,3.2923 -0.88674,1.32071 -2.9575,4.23844 -4.60127,6.48385 -1.6437,2.24533 -4.80608,6.6263 -7.02747,9.73532 -6.68453,9.35518 -9.07307,12.66128 -11.54969,15.98662 -3.98039,5.34444 -6.45302,9.03253 -7.64346,11.40034 -2.35035,4.67494 -3.88798,9.16799 -5.21622,15.24248 -1.59658,7.30185 -1.28585,17.15474 0.72554,23.00583 2.31321,6.72911 3.66446,7.9372 9.62784,8.60516 7.72368,0.86514 15.61791,-0.12746 23.3965,-2.94142 3.77274,-1.36482 10.48636,-4.70856 13.46223,-6.70502 2.88259,-1.9339 9.24869,-7.87438 15.58664,-14.54433 2.84993,-2.99924 5.6776,-5.94855 6.28386,-6.55361 0.60625,-0.60506 2.52793,-2.65479 4.27002,-4.55476 1.7421,-1.89995 5.82175,-6.13082 9.06612,-9.40201 3.2443,-3.2712 6.16297,-6.37988 6.48539,-6.90862 0.72918,-1.19582 0.76077,-3.33107 0.0703,-4.78627 -0.39935,-0.84156 -1.53791,-1.76392 -4.94647,-4.00854 -2.43511,-1.60361 -5.20468,-3.30304 -6.15466,-3.77652 -3.71339,-1.85074 -4.6537,-3.58464 -4.10053,-7.56181 0.54675,-3.9309 2.87406,-7.71484 8.47235,-13.77487 1.74083,-1.88436 3.16518,-3.54339 3.16518,-3.68711 0,-0.44987 -6.73352,-5.29115 -7.35924,-5.29115 z m 59.21137,9.41648 c -0.59362,-0.002 -1.27815,0.005 -2.06706,0.005 -4.99514,0 -10.55578,0.57113 -13.79037,1.41593 -1.01635,0.26545 -3.11661,1.13794 -4.66742,1.9389 -4.00633,2.06924 -6.58466,4.67785 -8.56433,8.66562 -1.42324,2.86698 -1.50962,3.1885 -1.6521,6.14743 -0.12457,2.58676 -0.0365,3.49159 0.5147,5.27462 1.05256,3.40489 0.98681,3.38393 3.31556,1.07745 1.12017,-1.10948 1.96262,-2.13757 1.87172,-2.28462 -0.0909,-0.14698 0.0219,-0.22888 0.25063,-0.18138 0.22871,0.0475 0.37668,-0.10097 0.32918,-0.3297 -0.0475,-0.22881 0.037,-0.33959 0.18759,-0.24649 0.38001,0.23486 2.00478,-1.51765 1.70894,-1.8433 -0.13196,-0.14526 -0.0629,-0.16249 0.15296,-0.0382 0.24539,0.14121 0.39222,0.0355 0.39222,-0.28216 0,-0.27939 0.1227,-0.43253 0.27234,-0.34003 0.14965,0.0925 0.53816,-0.12793 0.86351,-0.48989 1.56856,-1.74507 6.19203,-5.30049 7.34063,-5.64462 1.16964,-0.35035 1.32692,-0.32286 2.04794,0.35451 1.7226,1.61823 0.93997,3.00436 -5.31802,9.41751 -4.6107,4.72489 -6.77633,7.135 -6.77633,7.54114 0,0.29687 3.1832,1.60182 4.6855,1.92081 0.61842,0.13125 2.04248,0.17786 3.16518,0.10336 9.13956,-0.60716 15.9026,-6.7377 18.52083,-16.78864 0.53954,-2.07114 0.73308,-3.91673 0.86455,-8.23464 0.20273,-6.65804 0.50689,-7.1414 -3.64835,-7.15822 z m -69.62882,6.39702 c 0.0552,-0.005 0.089,-0.003 0.0992,0.007 0.0816,0.0816 0.0565,0.4383 -0.0558,0.7922 -0.49705,1.56606 -2.86556,4.31357 -8.79481,10.20196 -4.74977,4.71704 -6.97636,7.19199 -8.79068,9.7715 -3.40169,4.83641 -4.20414,6.52933 -4.4204,9.32656 -0.31969,4.13489 -0.38511,4.33563 -1.56631,4.82916 -1.4619,0.61083 -3.60083,0.55856 -4.45038,-0.10904 -0.82025,-0.64464 -1.35082,-1.93691 -1.35082,-3.29075 0,-1.47936 0.92415,-4.92457 1.7477,-6.5164 0.40212,-0.77725 1.55136,-3.07208 2.55385,-5.09995 4.61116,-9.32772 6.60997,-12.65093 9.22372,-15.33446 1.60887,-1.65174 1.58552,-1.64338 5.9459,-2.14406 1.70714,-0.19604 4.4434,-0.82007 6.3965,-1.45882 1.64262,-0.53718 3.07517,-0.93759 3.46233,-0.97462 z m 38.90305,22.06532 -1.23249,0.97669 c -2.7707,2.19449 -7.81148,7.82663 -9.16636,10.24227 -0.71089,1.26745 -1.23317,2.48346 -1.21078,2.80189 -2.20578,-0.36303 -4.34502,-0.6263 -6.165,-0.62787 v -5.1e-4 c -1.06106,-9.1e-4 -1.86937,-0.11116 -3.16053,0.36535 -1.29116,0.47652 -2.03927,1.3827 -2.54455,1.97249 -0.48538,0.56655 -1.79713,2.04479 -2.81481,3.16776 -1.06135,1.17122 -2.95057,3.29493 -4.24419,4.76974 -2.63955,3.0093 -16.23631,17.1435 -19.84375,20.61114 -1.51464,1.45601 -3.69516,3.38235 -4.39043,3.92225 -2.14312,1.6641 -7.79675,5.16242 -10.35182,6.39805 -5.87605,2.842 -18.80463,5.89252 -24.65999,5.8968 -3.93794,0.003 -10.38763,-1.55505 -13.40642,-3.15071 -0.47714,-0.2522 -1.89151,-1.35592 -2.42724,-1.95699 -3.35351,-3.76244 -5.0922,-9.57085 -5.0922,-19.9254 0,-1.67403 -0.0126,-2.76086 -0.10128,-3.68194 -0.0443,-0.46054 -0.0646,-0.85684 -0.32453,-1.55081 -0.12994,-0.34698 -0.31948,-0.81233 -0.85938,-1.35341 -0.53991,-0.54109 -1.59608,-1.03921 -2.49597,-1.03921 -1.1547,0 -1.44422,0.28983 -1.73633,0.44183 -0.2921,0.152 -0.48253,0.2828 -0.66766,0.41393 -0.37026,0.26224 -0.69608,0.5309 -1.05317,0.84181 -0.71418,0.62183 -1.52001,1.39473 -2.34921,2.23242 -1.65842,1.67536 -3.26152,3.35652 -4.30309,4.95887 -4.34219,6.68006 -6.74742,14.25164 -8.15403,25.00365 a 3.3733372,3.3733372 0 0 0 1.65985,3.35948 l 12.33981,7.11326 72.69169,41.90442 a 3.3733372,3.3733372 0 0 0 3.37292,-0.004 l 70.19365,-40.5877 4.64622,-2.68769 0.9338,-0.53899 a 3.3733372,3.3733372 0 0 0 1.66966,-3.24218 c -0.45332,-4.75219 -1.44214,-10.2406 -2.87889,-14.91795 -1.53125,-4.98477 -4.96645,-11.85694 -8.0977,-16.26774 -2.69688,-3.7989 -7.50023,-8.9117 -10.89028,-11.36675 -2.8395,-2.05631 -8.41388,-5.37781 -11.36727,-6.7169 -2.10589,-0.95487 -4.70029,-1.7852 -7.36906,-2.50114 0.0873,-0.11119 0.17844,-0.23269 0.26975,-0.3638 1.76642,-2.53643 5.54843,-7.30907 7.14375,-9.01496 l 1.80454,-1.92959 -1.06505,-1.21698 c -0.58563,-0.66953 -1.34279,-1.56267 -1.6831,-1.98438 z m -12.85193,42.91831 c 1.31164,0.0291 2.62756,1.15597 2.89233,2.56729 0.24339,1.29743 -0.22311,2.21657 -1.52962,3.01325 -1.40166,0.85466 -2.00606,0.76956 -3.23081,-0.45527 -0.81261,-0.81262 -1.06764,-1.33365 -1.06764,-2.18074 0,-1.45601 1.06537,-2.68418 2.53008,-2.91714 0.13443,-0.0214 0.26997,-0.0304 0.40566,-0.0274 z" /><path
       id="path98"
       style="color:#000000;fill:#000000;stroke-linejoin:round;-inkscape-stroke:none"
       d="m -153.19402,520.78644 c 4.16544,-4.32842 8.20492,-8.59375 9.52034,-10.09344 0.9306,-1.06094 2.03593,-2.29492 3.05305,-3.43131 -1.01734,1.13633 -2.12328,2.37015 -3.05408,3.43131 -1.31438,1.49849 -5.35752,5.76819 -9.51931,10.09344 z" /><path
       id="path99"
       style="color:#000000;fill:#000000;stroke-linejoin:round;-inkscape-stroke:none"
       d="m -170.06948,536.75394 c 0.87103,-0.5811 1.62599,-1.11161 2.16162,-1.52755 0.68989,-0.53572 2.83865,-2.43473 4.35168,-3.88659 -1.5128,1.45128 -3.66193,3.35036 -4.35116,3.88555 -0.53578,0.41606 -1.29091,0.94721 -2.16214,1.52859 z" /><path
       id="path100"
       style="color:#000000;fill:#000000;stroke-linejoin:round;-inkscape-stroke:none"
       d="m -208.7772,546.77245 c 2.09949,0.43649 4.20384,0.75001 5.85753,0.7488 2.92773,-0.002 7.6237,-0.76571 12.32224,-1.88413 -4.69909,1.11826 -9.39554,1.88147 -12.32328,1.88361 -1.65344,0.001 -3.7574,-0.31214 -5.85649,-0.74828 z" /><path
       id="path101"
       style="color:#000000;fill:#000000;stroke-linejoin:round;-inkscape-stroke:none"
       d="m -223.94681,518.8062 c 0.0887,0.92108 0.10128,2.00782 0.10128,3.68195 0,6.47139 0.67912,11.16706 2.00712,14.69729 -1.32765,-3.53016 -2.00608,-8.22563 -2.00608,-14.69729 0,-1.67412 -0.0131,-2.7588 -0.10181,-3.67988 -6e-5,-7e-4 -4.4e-4,-10e-4 -5.1e-4,-0.002 z" /><path
       id="path102"
       style="color:#000000;fill:#000000;stroke-linejoin:round;-inkscape-stroke:none"
       d="m -224.54729,516.65129 c 0.13111,0.22735 0.21098,0.43061 0.27595,0.6041 0.25992,0.69397 0.28023,1.09027 0.32453,1.55081 -0.0442,-0.45966 -0.064,-0.85838 -0.3235,-1.55132 -0.0649,-0.17338 -0.1455,-0.37641 -0.27698,-0.60359 z" /><path
       id="path103"
       style="color:#000000;fill:#000000;stroke-linejoin:round;-inkscape-stroke:none"
       d="m -231.08333,516.55983 c 0.35687,-0.3107 0.68259,-0.57919 1.05265,-0.84129 0.134,-0.0949 0.30708,-0.197 0.48318,-0.29973 -0.17609,0.10261 -0.34908,0.20423 -0.48318,0.29921 -0.37026,0.26224 -0.69556,0.5309 -1.05265,0.84181 z" /><path
       id="path105"
       style="color:#000000;fill:#000000;stroke-linejoin:round;-inkscape-stroke:none"
       d="m -221.91386,407.18046 c 0.0587,-0.0791 0.0984,-0.14027 0.016,-0.10439 -0.15471,0.0674 -0.23204,0.0232 -0.016,0.10439 z" /><g
       id="g108"
       transform="rotate(96.345847,-507.6229,278.02294)"
       style="stroke:none;stroke-opacity:1"><path
         style="color:#000000;fill:none;stroke:none;stroke-linejoin:round;stroke-opacity:1;-inkscape-stroke:none"
         d="m -251.35394,-111.12621 c 0.22887,2.07431 0.27093,2.15745 1.49859,2.99308 0.69452,0.47274 2.28613,1.59864 3.53732,2.50221 1.25119,0.9036 3.57532,2.55057 5.16453,3.65961 3.64984,2.547054 18.82072,14.21489 22.90704,17.617707 1.69698,1.41313 3.78643,3.290225 4.64276,4.171544 2.22608,2.291038 6.18866,7.349765 7.94011,10.135755 3.92653,6.245715 8.32141,18.476525 9.08278,25.277534 0.52061,4.650367 -0.2889,11.288659 -1.86395,15.284287 -0.4363,1.106825 -1.41839,2.660452 -2.30538,3.647499 -4.13804,4.604816 -10.70574,7.173142 -21.37719,8.359925 -3.26434,0.363031 -4.21558,0.562572 -4.18064,0.876734 0.0749,0.67317 5.98944,5.35483 8.11363,6.422213 6.60256,3.3176852 13.74181,4.7791466 24.30188,4.983266 l 5.70576,-13.050433 33.6125,-76.878429 -48.09954,-65.277192 -3.18375,-4.3208 -0.63997,-0.8689 c -4.45108,0.92946 -9.65676,2.48499 -13.85735,4.30463 -4.21487,1.82584 -10.74679,6.03879 -14.36869,9.26774 -3.03402,2.70486 -7.79509,8.38832 -9.40611,11.22825 -1.49498,2.63533 -4.34327,8.95619 -5.14609,11.42054 -1.59017,4.88104 -2.58707,13.63169 -2.07824,18.24323 z"
         id="path108" /></g></g></svg>
